# xmcd
#
# Track frame offsets:
#	150
#	12557
#	25725
#	42277
#	52645
#	67845
#	83660
#	93952
#	103332
#	115647
#	127807
#	140230
#	162195
#	174325
#	186025
#	203510
#	214887
#	225520
#	238939
#	252243
#
# Disc length: 3551 seconds
#
# Revision: 1
# Processed by: cddbd v1.5.2PL0 Copyright (c) Steve Scherf et al.
# Submitted via: ExactAudioCopy v0.99pb5
#
DISCID=000ddd14
DTITLE=Various Artist - Tell It Likeit is - Legends of Soul Cd3
DYEAR=2009
DGENRE=Soul
TTITLE0=John Lee Hooker - I'm in the Mood
TTITLE1=Lloyd Price - Stagger Lee
TTITLE2=Nina Simone - Here Comes the Sun
TTITLE3=Archie Bell and the Drells - I Just Can't Stop Dancing
TTITLE4=Percy Sledge - Warm and Tender Love
TTITLE5=Drifters, (The) - Cupid
TTITLE6=Ike and Tina Turner - Shake A Tail Feather
TTITLE7=Gladys Knight - Every Beat of My Heart
TTITLE8=Coasters, (The) - Poison Ivy
TTITLE9=Eddie Floyd - Things Get Better
TTITLE10=Ike and Tina Turner - So Fine
TTITLE11=Ben E. King - All Your Tomorrows
TTITLE12=Jerry Butler - Make It Easy on Yourself
TTITLE13=Percy Sledge - Sitting on the Dock of the Bay
TTITLE14=Dobie Gray - Drift Away
TTITLE15=Wilson Pickett - If You Need Me
TTITLE16=Sam and Dave - Hold on I'm Coming
TTITLE17=Drifters, (The) - On Broadway
TTITLE18=Clarence Carter - Patches
TTITLE19=Martha Reeves and the Vandellas - Nowhere to Run
EXTD=
EXTT0=
EXTT1=
EXTT2=
EXTT3=
EXTT4=
EXTT5=
EXTT6=
EXTT7=
EXTT8=
EXTT9=
EXTT10=
EXTT11=
EXTT12=
EXTT13=
EXTT14=
EXTT15=
EXTT16=
EXTT17=
EXTT18=
EXTT19=
PLAYORDER=
